<?xml version="1.0" encoding="UTF-8"?>
<svg version="1.1" viewBox="0 0 270 50" xmlns="http://www.w3.org/2000/svg">
    <path
        d="m41.449 12.405h8.2621v12.957h8.3769v-13.657h8.3868v34.396h-8.2637v-13.715h-7.383l-1.1794 0.76109v13.014h-8.2556zm-10.547 8.9708c-1.5222-10.613-9.2545-9.9582-9.2545-9.9582-11.318 1.1712-9.7269 15.109-9.7269 15.109 0.4642 13.778 9.6022 13.366 9.6022 13.366 9.4366-0.5331 9.0249-10.144 9.0249-10.144h8.6673c-0.05413 10.429-8.1391 15.299-8.1391 15.299-5.8575 3.6939-12.89 2.5736-12.89 2.5736-9.3808-1.4664-13.069-11.018-13.069-11.018-4.3336-11.888-0.52326-21.028-0.52326-21.028 4.7388-12.663 17.224-12.775 17.224-12.775 7.0894 0.23456 11.548 4.6272 11.548 4.6272 6.9745 6.2085 6.0904 13.892 6.0904 13.892zm50.629 2.6852-2.5178 9.9664 2.5178 0.06725h2.5162zm0 16.942-3.5152-0.05577-1.4107 5.0948h-9.1397l9.1955-33.583h9.8483l8.8428 33.585h-9.3611l-1.0629-4.98zm70.026-28.598h8.1965v12.717h8.2096v-12.663h8.4459v33.641h-8.4459v-13.771h-8.4999v13.01h-7.9062zm-10.608 11.367c-1.1138-4.5698-4.2122-4.2139-4.2122-4.2139-4.6961-0.23785-5.1604 8.2556-5.1604 8.2556-0.3543 11.376 5.2686 10.724 5.2686 10.724 4.227-0.16731 4.5714-4.4436 4.5714-4.4436h-3.8678v-6.9204h11.781v18.696h-6.9696l0.0541-1.9405c-1.642 2.403-6.9696 2.5752-6.9696 2.5752-13.956-0.58231-12.194-20.27-12.194-20.27 1.3549-15.291 13.125-14.939 13.125-14.939 13.124 0.8792 12.189 12.476 12.189 12.476h-7.6159zm-44.417-11.367h8.7838l7.7422 16.762v-16.823l8.5509 0.11482v33.585h-8.5509l-8.2621-17.699v17.755h-8.2654v-33.695zm98.909 3.6382-3.0985 8.6739s-0.23949 1.2844-2.6408 1.9946l-7.9718 2.6885 9.4973 3.9925s1.2302 0.58066 1.286 1.8716l2.928 8.3802 3.1099-8.3802s0.5823-1.9388 3.4004-2.467l7.2042-2.8689-8.3787-3.4528s-1.8716-0.64627-2.3391-3.2839l-2.5818-8.2621zm0 31.172c-1.7518-0.11482-9.7843-1.1171-14.533-7.4994 0 0-3.3938-3.8629-3.2724-12.717 0 0 1.4074-15.355 17.805-16.348 0 0 17.294 0.93333 17.871 18.28 0 0 0.58887 16.476-17.515 18.342zm18.871-34.925h8.3868l8.4344 17.815v-17.646h7.9652v33.585h-7.793l-8.6066-17.409v17.465l-8.2129-0.05577zm43.774 10.955c-0.35595-4.2762-3.9859-4.1007-3.9859-4.1007-6.0362 0.5905-5.4507 9.7827-5.4507 9.7827 0.17714 9.3185 5.6869 9.3792 5.6869 9.3792 3.9236-0.06069 4.5173-4.3385 4.5173-4.3385l-3.7628-0.05577v-7.0303l11.605-0.11646-0.0575 18.574h-6.8564v-2.8706c-0.87593 3.2822-7.1451 3.7481-7.1451 3.7481-12.717-0.40188-12.494-17.584-12.494-17.584 1.537-19.68 14.603-17.574 14.603-17.574 11.131 0.9973 11.308 12.188 11.308 12.188h-7.9685z"
        fill="#f00" stroke-width="1.6403" />
</svg>