<?xml version="1.0" encoding="UTF-8"?>
<svg version="1.1" viewBox="0 0 230 50" xmlns="http://www.w3.org/2000/svg">
    <g transform="matrix(.82308 0 0 .82308 33.75 26.728)" stroke-width=".89987">
        <path d="m21.355-31.559h-61.074v56.347l61.075-56.347" fill="#44c8f5" />
        <path d="m-9.1877-31.559h-30.533v28.187l30.533-28.187" fill="#231f20" />
        <path
            d="m106.64-19.329-7.9724 31.875h14.086l7.966-31.875h-14.079m-32.17 18.474h-3.2305l5.2085-9.1955 1.6894 9.1955zm-2.0042-18.477-18.115 31.874h9.3161l3.007-5.3129h12.933l0.96376 5.3129h13.75l-5.8444-31.874h-16.01m98.503 0.0032-7.9513 31.875h14.083l7.9529-31.875h-14.084m-6.2946 0h-14.433l-12.082 10.427 2.6368-10.427h-13.501l-7.9513 31.875h13.458l2.7494-11.004 7.1963 11.004h16.291l-12.066-16.694 17.701-15.182m-121.38 14.486s-0.91481 10.353-9.7369 10.353h-4.9916l4.3963-17.193h4.5301c1.6209 0.0099 6.3124 0.4305 5.802 6.8392zm-0.71423-14.471-3.643-0.01143h-17.625l-7.9513 31.862h17.501l6.924 0.0098c9.7483 0 19.342-7.2566 19.342-18.371 0-13.078-14.547-13.489-14.547-13.489m176.11-0.01959-4.6981 18.769-6.2586-18.769h-15.665l-7.9578 31.88h9.7402l4.7437-18.934 6.2782 18.934h15.598l7.9693-31.88h-9.75"
            fill="#00a0e4" />
    </g>
</svg>