<?xml version="1.0" encoding="UTF-8"?>
<svg version="1.1" viewBox="0 0 115 50" xmlns="http://www.w3.org/2000/svg">
    <g transform="matrix(1.1674 0 0 1.1674 -5.6482 -5.0576)" stroke-width=".53914">
        <path
            d="m27.081 46.642c11.499 0 20.838-9.3116 20.838-20.817 0-11.506-9.3391-20.826-20.838-20.826-11.517 0-20.838 9.3202-20.838 20.826 0 11.505 9.3213 20.817 20.838 20.817"
            fill="#a50034" />
        <path
            d="m32.051 34.955v-1.6428h-4.1342v-16.627h-1.674v18.27zm-11.624-13.285c1.3818 0 2.4957-1.1236 2.4957-2.4957 0-1.3732-1.1139-2.5011-2.4957-2.5011s-2.4957 1.1279-2.4957 2.5011 1.1139 2.4957 2.4957 2.4957"
            fill="#fff" />
        <path
            d="m27.916 8.3976c-0.21781-0.010783-0.63188-0.024261-0.82974-0.024261-9.6184 0-17.446 7.8305-17.446 17.443 0 4.669 1.8142 9.0452 5.1003 12.336 3.2996 3.2834 7.678 5.0976 12.346 5.0976 4.6501 0 9.0274-1.8142 12.321-5.0976 3.2942-3.2909 5.117-7.6672 5.117-12.336v-0.77583h-12.457v1.6056h10.796c0 0.03505 0 0.20541-0.0076 0.24962-0.54885 8.2177-7.4122 14.726-15.769 14.726-4.2301 0-8.1966-1.6449-11.182-4.6323-2.995-2.975-4.6453-6.9383-4.6453-11.174 0-4.2113 1.6503-8.195 4.6453-11.179 2.9852-2.9815 6.9517-4.6264 11.182-4.6264 0.18223 0 0.62541 0 0.82974 0.01078z"
            fill="#fff" />
        <path
            d="m63.591 12.009h-6.2616v27.107h19.232v-5.2766h-12.971zm26.745 16.777h5.0998v4.7396c-0.94027 0.35799-2.7739 0.71491-4.5186 0.71491-5.6357 0-7.513-2.8623-7.513-8.6759 0-5.544 1.7878-8.8129 7.4235-8.8129 3.1319 0 4.9208 0.98448 6.3948 2.8634l3.8932-3.5794c-2.3712-3.3966-6.5317-4.4253-10.422-4.4253-8.7687 0-13.375 4.7855-13.375 13.909 0 9.0792 4.1595 13.999 13.33 13.999 4.2037 0 8.319-1.0729 10.554-2.638v-13.15h-10.868z"
            fill="#6b6b6b" />
    </g>
</svg>