<?xml version="1.0" encoding="UTF-8"?>
<svg version="1.1" viewBox="0 0 280 50" xmlns="http://www.w3.org/2000/svg">
    <defs>
        <clipPath id="a">
            <path d="m283.61 700.16h166.16v-25.242h-166.16z" />
        </clipPath>
        <clipPath id="b">
            <path d="m283.61 700.16h166.16v-25.242h-166.16z" />
        </clipPath>
        <clipPath id="c">
            <path d="m283.61 700.16h166.16v-25.242h-166.16z" />
        </clipPath>
    </defs>
    <g transform="matrix(.5499 0 0 .5499 2.8523 4.4952)" fill="#0056a8">
        <g transform="matrix(3.041,0,0,-3.041,-862.45,2128.8)" clip-path="url(#a)">
            <path
                d="m446.22 677.78c-1.324-1.392-2.825-2.222-4.708-2.601-1.271-0.257-2.384-0.311-3.676-0.177-1.712 0.176-3.125 0.726-4.503 1.757-1.127 0.84-1.934 1.749-2.639 2.967-0.544 0.943-0.861 1.825-1.037 2.899-0.247 1.49-0.182 2.801 0.21 4.258 0.896 3.314 3.389 5.663 6.749 6.362 1.919 0.399 3.625 0.358 5.522-0.132 1.351-0.349 2.424-0.937 3.446-1.888 0.645-0.598 1.103-1.199 1.509-1.977 0.481-0.92 0.675-1.814 0.62-2.85h-5.993c-0.13 0.803-0.515 1.443-1.162 1.935-0.838 0.639-1.919 0.69-2.815 0.136-0.612-0.381-1.014-0.899-1.231-1.586-0.516-1.637-0.539-3.16-0.079-4.813 0.196-0.695 0.525-1.24 1.051-1.736 0.599-0.572 1.346-0.807 2.166-0.686 0.508 0.074 0.921 0.296 1.263 0.681 0.359 0.397 0.564 0.823 0.658 1.35 0.066 0.371 0.103 0.685 0.123 1.061h6.318c0.126-1.905-0.478-3.578-1.792-4.96" />
        </g>
        <path
            d="m421.05 14.086h19.931v-14.08h-19.931zm0 60.538h19.931v-53.3h-19.931zm-41.288-47.675c2.6213-2.293 5.121-3.9107 8.2837-5.3734 5.1484-2.3781 10.297-2.7643 15.743-1.1739 5.8418 1.7121 10.05 5.8205 11.893 11.626 0.885 2.7886 1.268 5.264 1.268 8.1894v34.4h-21.168v-30.936c0-1.034-0.1247-1.9098-0.4349-2.9011-0.5413-1.776-1.7151-3.0836-3.4302-3.8074-3.7526-1.5934-8.0191-0.1824-10.078 3.333-0.8606 1.4657-1.2529 2.9102-1.2529 4.6132v29.698h-20.502v-53.303h19.234l0.444 5.635m-235.74 0c2.6213-2.293 5.121-3.9107 8.2776-5.3734 5.1515-2.3781 10.303-2.7643 15.746-1.1739 5.8448 1.7121 10.054 5.8205 11.896 11.626 0.885 2.7886 1.268 5.264 1.268 8.1894v34.4h-21.168v-30.936c0-1.034-0.1308-1.9098-0.4318-2.9011-0.5474-1.776-1.7212-3.0836-3.4394-3.8074-3.7496-1.5934-8.016-0.1824-10.072 3.333-0.8636 1.4657-1.256 2.9102-1.256 4.6132v29.698h-20.499v-53.303h19.231l0.447 5.635" />
        <g transform="matrix(3.041,0,0,-3.041,-862.45,2128.8)" clip-path="url(#b)">
            <path
                d="m372.28 681.95c0.502-0.085 0.922-0.19 1.404-0.351 0.403-0.132 0.68-0.444 0.768-0.857 0.096-0.451-0.031-0.879-0.355-1.204-0.329-0.333-0.704-0.525-1.166-0.597-0.618-0.099-1.166-0.048-1.755 0.166-0.285 0.102-0.511 0.231-0.745 0.424-0.301 0.254-0.495 0.545-0.612 0.921-0.098 0.319-0.137 0.601-0.131 0.935h-6.419v-0.374c0-0.604 0.094-1.116 0.306-1.681 0.322-0.85 0.763-1.507 1.429-2.127 0.869-0.813 1.776-1.32 2.919-1.647 2.373-0.676 4.51-0.81 6.949-0.436 1.144 0.175 2.088 0.483 3.117 1.016 0.453 0.235 0.816 0.478 1.207 0.806 1.734 1.456 2.377 3.678 1.684 5.833-0.262 0.812-0.676 1.438-1.321 1.998-0.884 0.766-1.779 1.254-2.903 1.582-0.246 0.071-0.456 0.131-0.704 0.199-1.375 0.382-2.556 0.634-3.968 0.844-0.378 0.056-0.696 0.117-1.069 0.204-0.172 0.041-0.315 0.089-0.475 0.162-0.395 0.178-0.57 0.643-0.392 1.037 0.01 0.021 0.019 0.04 0.03 0.06 0.212 0.379 0.526 0.626 0.94 0.747 0.733 0.212 1.408 0.194 2.127-0.051 0.69-0.235 1.123-0.868 1.093-1.597h6.185c-6e-3 0.76-0.122 1.402-0.378 2.116-0.262 0.724-0.66 1.275-1.265 1.752-0.526 0.418-1.025 0.702-1.652 0.945-0.61 0.237-1.148 0.385-1.793 0.498-1.533 0.264-2.852 0.341-4.404 0.249-0.887-0.051-1.635-0.161-2.503-0.364-1.168-0.275-2.109-0.726-3.053-1.466-0.802-0.629-1.327-1.364-1.663-2.326-0.153-0.436-0.226-0.823-0.246-1.282-0.035-0.769 0.076-1.424 0.361-2.139 0.51-1.28 1.416-2.187 2.698-2.698 0.649-0.259 1.218-0.429 1.903-0.569 1.35-0.279 2.493-0.496 3.852-0.728" />
        </g>
        <path
            d="m36.322 51.636h-13.678v-17.489h8.8888c1.6878 0 3.117-0.0395 4.8048-0.1338 2.3385-0.1277 4.2817-1.1738 5.6745-3.0562 0.739-1.0005 1.1556-2.0101 1.332-3.2447 0.146-1.04 0.1672-1.928 0.0638-2.968-0.38-3.8925-3.6036-6.8119-7.5112-6.8119h-13.253v56.687h-22.643v-74.62h37.012c1.4719 0 2.7156 0.0273 4.1844 0.1094 9.8194 0.526 17.908 5.9786 22.069 14.889 2.1652 4.6376 2.901 9.0957 2.3446 14.186-1.1739 10.716-8.67 19.052-19.201 21.36-3.491 0.7663-6.5138 1.0917-10.087 1.0917m297.26-31.337c-2.1074-0.3345-3.9077-0.4714-6.0394-0.4714-2.1348 0-3.932 0.1369-6.0425 0.4714-6.1185 0.958-11.075 3.418-15.542 7.7059-4.7805 4.595-7.3988 10.032-7.9979 16.634-0.3649 4.0536-0.0517 7.5477 1.04 11.468 1.6726 6.015 4.814 10.662 9.7708 14.457 3.263 2.5088 6.5077 4.011 10.528 4.8869 2.8554 0.6264 5.3217 0.885 8.244 0.885 2.9194 0 5.3887-0.2586 8.2473-0.885 4.0171-0.8758 7.2619-2.378 10.525-4.887l-11.452-12.48c-1.8216 4.0446-6.5656 5.8479-10.613 4.0263-1.8642-0.8393-3.187-2.1591-4.0294-4.0263-0.7754-1.7242-1.2285-3.269-1.5083-5.1423-0.5656-3.7435-0.5018-6.9943 0.2311-10.713 0.374-1.931 1.0188-3.5063 2.0953-5.1515 2.3537-3.5914 7.1707-4.595 10.768-2.2443 0.9396 0.6174 1.6269 1.3046 2.2381 2.2443 1.0796 1.6452 1.7243 3.2204 2.0983 5.1515 0.7238 3.719 0.7968 6.97 0.2311 10.713-0.2828 1.8733-0.7359 3.418-1.5113 5.1423l11.452 12.48c4.9598-3.7952 8.1012-8.4418 9.7707-14.457 1.0917-3.9198 1.4019-7.4139 1.04-11.468-0.599-6.602-3.2113-12.039-7.9948-16.634-4.4702-4.2939-9.424-6.748-15.549-7.7059" />
        <g transform="matrix(3.041,0,0,-3.041,-862.45,2128.8)" clip-path="url(#c)">
            <path
                d="m362.55 676.88c-0.098 1.444-0.153 2.667-0.182 4.116-0.038 1.904-0.061 3.51-0.074 5.413-8e-3 1.027-0.121 1.894-0.378 2.888-0.337 1.303-1.1 2.293-2.275 2.951-0.71 0.397-1.361 0.641-2.155 0.813-2.528 0.541-4.759 0.586-7.306 0.144-0.716-0.124-1.308-0.296-1.98-0.574-1.552-0.642-2.621-1.812-3.119-3.415-0.191-0.613-0.242-1.169-0.169-1.808a0.9483 0.9483 0 0 1 0.096-0.323l5.898-0.144c-0.015 0.376 0.034 0.694 0.161 1.047 0.193 0.538 0.573 0.92 1.111 1.116 0.791 0.291 1.553 0.302 2.355 0.04 0.527-0.173 0.901-0.553 1.065-1.082 0.103-0.331 0.052-0.657-0.148-0.94-0.174-0.25-0.389-0.418-0.674-0.527a4.8882 4.8882 0 0 0-0.506-0.164c-0.82-0.221-1.52-0.373-2.357-0.512a47.351 47.351 0 0 1-1.878-0.346c-0.893-0.177-1.639-0.373-2.504-0.653-0.792-0.256-1.416-0.62-2.028-1.183-0.796-0.728-1.251-1.591-1.403-2.662-0.1-0.714-0.077-1.336 0.081-2.039 0.413-1.828 1.682-3.18 3.483-3.704 1.996-0.579 3.869-0.484 5.796 0.294 0.938 0.377 1.652 0.9 2.297 1.678l-0.416 3.013c-0.297-0.46-0.666-0.774-1.165-0.994-0.468-0.207-0.891-0.316-1.4-0.368-0.424-0.042-0.792-0.011-1.203 0.104-0.334 0.092-0.595 0.248-0.832 0.5-0.2 0.216-0.319 0.448-0.38 0.736-0.093 0.442 0.052 0.867 0.397 1.16 0.231 0.197 0.457 0.329 0.74 0.433 0.685 0.252 1.27 0.441 1.971 0.64 0.848 0.239 1.55 0.498 2.35 0.866 0.079-0.641 0.075-1.19-0.014-1.828-0.065-0.468-0.207-0.853-0.464-1.249l0.416-3.013c0.129-0.428 0.248-0.786 0.394-1.205 0.083-0.235 0.191-0.417 0.355-0.6h6.497c-0.277 0.435-0.418 0.865-0.453 1.381m-39.35 0c-0.098 1.444-0.153 2.667-0.182 4.116-0.039 1.904-0.061 3.51-0.074 5.413-7e-3 1.027-0.12 1.894-0.378 2.888-0.337 1.303-1.099 2.293-2.275 2.951-0.71 0.397-1.361 0.641-2.155 0.813-2.528 0.541-4.759 0.586-7.307 0.144-0.714-0.124-1.308-0.296-1.979-0.574-1.552-0.642-2.621-1.812-3.119-3.415-0.19-0.613-0.242-1.169-0.168-1.808a0.9249 0.9249 0 0 1 0.095-0.323l5.898-0.144c-0.014 0.376 0.034 0.694 0.161 1.047 0.193 0.538 0.573 0.92 1.111 1.116 0.792 0.291 1.553 0.302 2.354 0.04 0.528-0.173 0.903-0.553 1.068-1.082 0.101-0.331 0.05-0.657-0.15-0.94-0.175-0.25-0.39-0.418-0.674-0.527a4.8286 4.8286 0 0 0-0.507-0.164c-0.819-0.221-1.52-0.373-2.356-0.512-0.662-0.109-1.221-0.212-1.879-0.346-0.892-0.177-1.637-0.373-2.504-0.653-0.79-0.256-1.414-0.62-2.027-1.183-0.796-0.728-1.25-1.591-1.403-2.662-0.101-0.714-0.077-1.336 0.082-2.039 0.411-1.828 1.682-3.18 3.481-3.704 1.998-0.579 3.869-0.484 5.797 0.294 0.937 0.377 1.653 0.9 2.298 1.678l-0.416 3.013c-0.297-0.46-0.667-0.774-1.167-0.994-0.467-0.207-0.891-0.316-1.398-0.368-0.426-0.042-0.792-0.011-1.204 0.104-0.334 0.092-0.595 0.248-0.831 0.5-0.201 0.216-0.32 0.448-0.381 0.736-0.092 0.442 0.052 0.867 0.397 1.16 0.23 0.197 0.456 0.329 0.74 0.433 0.685 0.252 1.271 0.441 1.972 0.64 0.848 0.239 1.549 0.498 2.35 0.866 0.078-0.641 0.074-1.19-0.015-1.828-0.065-0.468-0.208-0.853-0.463-1.249l0.416-3.013c0.128-0.428 0.247-0.786 0.394-1.205 0.082-0.235 0.19-0.417 0.354-0.6h6.497c-0.277 0.435-0.417 0.865-0.453 1.381" />
        </g>
    </g>
</svg>