<?xml version="1.0" encoding="UTF-8"?>
<svg version="1.1" viewBox="0 0 300 50" xmlns="http://www.w3.org/2000/svg">
    <g transform="translate(122.08 -237.32)">
        <g transform="matrix(.22663 0 0 .22663 -94.41 183.53)" fill="#ee1c25" stroke-width=".74645">
            <path
                d="m1026.8 426.01c-4.217-1.7018-3.9987 2.7106-3.9987-80.822v-75.632c0-3.0075 1.5248-4.784 5.9037-4.784h38.049c42.47 0 47.236 0.28302 58.227 3.4577 25.369 7.3274 40.353 25.107 44.458 52.752 0.9518 6.4099 1.1587 16.143 1.1587 54.505v45.582c0 4.2689-4.0148 5.3084-6.9596 5.3084l-14.52 0.22366-17.879 0.22365c-2.1934 0-4.5813-2.0849-4.5813-4.9746l-0.2943-45.695c-0.3247-50.411-0.2721-49.818-4.3743-58.032-2.6913-5.3888-8.7259-10.469-14.586-12.279-4.3298-1.3373-6.9301-1.5101-22.725-1.5101h-17.836l-0.024 59.156c-0.025 62.542 0.089 60.496-3.4728 62.393-1.9373 1.0318-34.027 1.1444-36.545 0.12823z" />
            <path
                d="m675.75 421.27v-74.188c0-74.619 0.0149-75.323 1.5136-76.932 0.83245-0.89353 2.2893-1.8193 3.2374-2.0573 0.94814-0.23798 20.673-0.29659 43.833-0.13034 46.067 0.33084 46.198 0.34212 59.174 5.0778 7.7748 2.8374 14.263 7.1354 20.05 13.282 9.0294 9.5894 12.682 19.671 12.746 35.183 0.0455 11.008-1.2251 17.132-5.2647 25.379-3.8149 7.7878-13.205 17.193-21.273 21.308-3.1834 1.6234-5.656 3.2876-5.4948 3.6982 0.16123 0.41052 7.4097 11.159 16.107 23.886 14.007 20.496 15.765 23.396 15.386 25.379-0.23553 1.2316-1.287 2.9951-2.3368 3.9188-1.8741 1.6492-2.2566 1.6795-21.213 1.6795-10.618 0-19.798-0.18916-20.401-0.42047-0.6027-0.23125-8.2403-11.148-16.973-24.26l-15.877-23.839h-19.921v43.534c-0.82489 3.0786-3.3799 4.9846-5.7129 4.9846h-32.097c-2.6944 0-4.677-2.4735-5.4836-5.4834zm84.203-78.281c4.8355-1.7815 8.6323-4.7207 10.651-8.2452 1.5504-2.707 1.8104-4.1291 1.8058-9.8802-9e-3 -5.5619-0.29938-7.2706-1.7143-9.9289-1.8096-3.4-6.624-6.9942-11.317-8.449-1.4511-0.44981-11.12-0.98976-21.486-1.1999l-18.848-0.38208v39.89l18.848-0.31034c14.765-0.2431 19.544-0.56673 22.061-1.4941z" />
            <path
                d="m564.53 421.97v-116.14h-44.108l-1.8322-1.8322c-1.8267-1.8267-1.8321-1.8778-1.8084-16.982 0.0248-15.856 0.17075-16.628 3.4728-18.387 1.2033-0.64084 18.472-0.86837 65.911-0.86837 70.435 0 66.643-0.63424 68.968 3.3925 0.35591 0.61647 0.46368 7.9141 0.46368 16.11 0 14.826-9e-3 14.911-1.8321 16.734-1.0875 1.3184-1.6296 1.8322-3.2347 1.8322h-41.959v57.127c0 61.022 0 61.054-3.62 62.991-0.95745 0.51241-7.934 0.80651-19.131 0.80651h-16.505c-1.7997 0-4.784-2.3884-4.784-4.7841z" />
            <path
                d="m404.81 426.54c-3.6134-1.8283-3.7242-2.7713-3.7359-31.796l-0.0101-27.157-27.619-45.447c-17.303-28.474-27.618-46.161-27.618-47.359 0-1.1172 0.9065-2.8178 2.1819-4.0932 1.5191-1.9424 2.2765-2.1819 4.5716-2.1819h16.909c15.878 0 19.58 0.19678 20.885 1.1109 0.87226 0.61096 8.5761 13.543 17.12 28.738 8.5435 15.195 15.75 27.627 16.015 27.627 0.26489 0 7.2917-12.008 15.615-26.685 8.3235-14.677 15.992-27.609 17.041-28.738l1.9074-2.0527h38.604l1.8322 1.8322c3.7278 3.7278 3.9328 3.3154-25.788 51.867l-27.617 45.115v55.814l-4.3638 4.3638-17.039-0.0101c-12.167-9e-3 -17.568-0.27885-18.89-0.94775z" />
            <path
                d="m247.96 426.38c-1.0723-0.58278-2.3373-1.9969-2.8111-3.1425-0.63587-1.5376-0.80942-21.594-0.66288-76.606l0.19851-72.283c0.50111-2.7383 2.2771-5.4301 4.8556-5.8092 2.3137-0.2717 6.873-0.0327 16.89-0.0327h16.438c3.0022 0 4.8315 3.0501 5.4835 5.4835v115.44h73.638l1.623 1.7276c1.5579 1.6583 1.623 2.3441 1.623 17.102v15.374l-4.5932 3.8649-55.366-0.0298c-46.366-0.0249-55.683-0.20208-57.316-1.0895z" />
            <path
                d="m-94.579 422.01v-148.92c0-1.615 1.8902-4.6867 5.0633-4.6867l38.523 0.3059c41.564 0.33003 42.469 0.38734 53.109 3.9108 18.727 6.2015 31.538 19.592 35.96 37.587 1.6705 6.7971 1.6378 21.874-0.06263 28.829-5.116 20.926-21.601 35.438-46.378 40.828-5.1519 1.1208-10.851 1.5581-24.446 1.8761l-17.728 0.41459-0.0043 18.375c-0.0021 10.29-0.34208 19.592-0.77216 21.141-0.4224 1.5209-1.6415 3.4523-2.7091 4.2921-1.8271 1.4374-2.9441 1.5268-19.066 1.5268h-14.886c-3.4421 0-6.6034-2.7106-6.6034-5.4835zm78.382-76.371c8.1889-3.7461 11.918-9.6317 11.93-18.829 0.00378-3.0315-0.38773-6.8302-0.87054-8.4417-1.2508-4.1749-5.8339-9.0394-10.477-11.121-3.6745-1.647-5.0418-1.7874-19.809-2.0343l-15.862-0.26516v42.804l15.862-0.28699c14.062-0.25439 16.244-0.46155 19.227-1.8261z" />
            <path
                d="m903.12 428.58c-19.143-3.6038-34.528-11.826-47.189-25.217-10.869-11.496-17.243-23.759-20.467-39.374-2.2543-10.919-1.7709-27.594 1.0997-37.931 8.0666-29.048 30.68-50.96 60.668-58.787 14.808-3.8651 35.947-3.152 50.885 1.7165 23.256 7.5792 43.072 26.043 51.552 48.033 6.7435 17.486 7.0688 40.397 0.81691 57.528-9.6186 26.356-30.809 45.354-58.775 52.695-13.894 2.1887-24.218 3.9428-38.591 1.3359zm24.189-38.425c14.85-2.3043 27.756-14.47 31.873-30.046 1.6462-6.2281 1.6317-18.794-0.0292-25.081-4.6573-17.633-18.316-29.442-35.965-31.096-20.422-1.9137-38.016 10.546-43.246 30.626-1.3593 5.2187-1.5287 17.931-0.31523 23.667 0.46026 2.1756 1.811 6.1172 3.0017 8.7591 7.8088 17.327 24.974 26.228 44.68 23.17z" />
            <path
                d="m151.05 389.73c13.182-3.8718 23.05-14.128 27.264-28.333 1.6318-5.5016 1.8546-19.075 0.40975-24.967-3.7822-15.423-16.11-27.949-30.509-31-22.768-4.8247-43.434 7.7449-49.077 29.851-1.4949 5.8555-1.4863 18.898 0.0163 24.667 2.0071 7.7058 5.4651 13.755 11.137 19.483 5.4794 5.5335 9.1764 7.8522 16.076 10.083 5.4703 1.7686 18.996 1.8874 24.684 0.21673zm-28.474 39.594c-31.218-5.6531-56.483-27.099-65.467-55.572-3.1492-9.9802-3.5217-12.794-3.4592-26.126 0.05434-11.593 0.27954-13.878 2.0014-20.308 7.2322-27.007 27.449-48.404 54.136-57.298 11.282-3.7599 18.389-4.7098 32.255-4.3111 10.009 0.28774 13.655 0.70808 19.463 2.244 16.527 4.3708 27.222 10.524 39.135 22.514 12.328 12.408 18.585 23.986 22.047 40.795 2.2188 10.771 1.7952 26.785-0.98807 37.353-8.3305 31.631-34.489 54.994-67.998 60.731-8.0993 1.3868-23.401 1.3754-31.125-0.0233z" />
        </g>
    </g>
</svg>