<?xml version="1.0" encoding="UTF-8"?>
<svg version="1.1" viewBox="0 0 300 50" xmlns="http://www.w3.org/2000/svg"
    xmlns:xlink="http://www.w3.org/1999/xlink">
    <g transform="matrix(.97958 0 0 .97958 2.3497 2.57)" fill="#034ea2">
        <path id="a"
            d="m20.78 32.93c0.41 1.03 0.28 2.35 0.08 3.15-0.35 1.42-1.31 2.87-4.15 2.87-2.66 0-4.28-1.54-4.28-3.86v-4.13h-11.43v3.28c0 9.5 7.47 12.37 15.48 12.37 7.7 0 14.04-2.62 15.05-9.73 0.52-3.68 0.14-6.09-0.04-6.98-1.8-8.92-17.96-11.58-19.17-16.57a5.46 5.46 0 0 1-0.04-2.24c0.3-1.37 1.23-2.86 3.89-2.86 2.5 0 3.95 1.54 3.95 3.86v2.64h10.63v-3c0-9.28-8.33-10.73-14.35-10.73-7.58 0-13.77 2.51-14.9 9.46-0.3 1.9-0.35 3.6 0.1 5.74 1.85 8.7 16.98 11.22 19.18 16.73" />
        <path
            d="m46.6 2.36-7.9 42.59h11.51l5.83-38.65h0.24l5.67 38.65h11.45l-7.85-42.6zm64.35 0-5.25 32.56h-0.25l-5.24-32.56h-17.37l-0.94 42.59h10.66l0.26-38.29h0.24l7.11 38.29h10.81l7.12-38.28h0.23l0.27 38.28h10.65l-0.94-42.6z" />
        <use transform="translate(138.47 -.08)" width="100%" height="100%" xlink:href="#a" />
        <path
            d="m195 38.57c2.96 0 3.87-2.04 4.08-3.08 0.09-0.46 0.1-1.08 0.1-1.63v-31.5h10.78v30.53a37 37 0 0 1-0.1 2.8c-0.75 7.95-7.03 10.53-14.86 10.53-7.84 0-14.12-2.58-14.87-10.53-0.03-0.42-0.11-2.02-0.1-2.8v-30.54h10.78v31.5c-0.01 0.56 0.01 1.18 0.1 1.64 0.2 1.04 1.12 3.08 4.09 3.08m52.08-36.21 0.58 33.43h-0.23l-9.8-33.43h-15.8v42.14h10.47l-0.58-34.59h0.23l10.51 34.59h15.17v-42.14zm36.75 35.77c3.08 0 4.16-1.95 4.35-3.1 0.09-0.47 0.1-1.07 0.1-1.6v-6.2h-4.37v-6.2h15.09v11.42c0 0.8-0.02 1.38-0.15 2.8-0.7 7.76-7.43 10.53-14.98 10.53s-14.27-2.77-14.98-10.53c-0.12-1.42-0.15-2-0.15-2.8v-17.92c0-0.76 0.1-2.1 0.18-2.8 0.95-7.97 7.4-10.53 14.95-10.53s14.17 2.54 14.95 10.52c0.14 1.36 0.1 2.8 0.1 2.8v1.43h-10.74v-2.39s0-1-0.13-1.62c-0.2-0.94-1-3.1-4.26-3.1-3.1 0-4.01 2.05-4.24 3.1-0.13 0.56-0.18 1.32-0.18 2.01v19.47c0 0.54 0.02 1.14 0.1 1.62 0.2 1.14 1.28 3.09 4.36 3.09" />
    </g>
</svg>