<?xml version="1.0" encoding="UTF-8"?>
<svg version="1.1" viewBox="0 0 270 50" xmlns="http://www.w3.org/2000/svg">
    <path
        d="m94.348 20.847h-23.003v-13.381h-11.888v34.995h11.888v-14.06h23.003v14.06h11.886v-34.995h-11.886v13.38m31.737 7.5528 8.2779-13.589 8.0241 13.589h-16.302m3.6666-20.935-21.319 34.995h9.0876l4.3602-7.1598h24.578l4.2301 7.1598h14.512l-21.313-34.995h-14.134m82.599 15.167c2.831-3.7086 2.4478-9.1416-2.9894-12.253-5.0658-2.9082-14.736-3.9784-20.779-3.9784-9.6657 0-15.889 0.65682-21.181 1.5617v34.499h11.883v-29.263c4.2803-0.84802 8.6267-0.86694 10.251-0.79121 4.7176 0.20883 7.374 0.94289 9.495 2.4479 2.1928 1.5645 2.7889 5.0226-0.0556 7.4228-2.1319 1.7895-6.4543 3.1955-16.121 1.7203l-1.3655 2.2418 18.278 16.222h16.182l-16.258-14.06c3.9062-0.50639 9.8294-2.0683 12.662-5.769m-178.95-3.073c-6.8635-1.3343-12.696-2.1633-12.696-4.3903 0-2.4651 4.7166-3.1006 11.4-2.3919 6.3201 0.66907 12.28 2.3228 17.839 4.6881l4.2222-6.9258c-4.4931-1.711-13.752-3.9025-22.161-4.1518-9.2104-0.26672-24.762 0.55942-25.434 9.8738-0.61349 8.5255 11.536 10.562 19.501 12.415 7.7695 1.8083 15.052 2.4627 15.052 5.1526 0 1.8909-2.5669 3.3671-9.3566 2.8581-8.1732-0.61092-15.127-2.8446-22.064-6.2918l-4.6095 7.569c7.6938 3.0071 17.783 5.4223 26.874 5.5726 10.808 0.18027 23.011-1.563 23.287-10.82 0.22592-7.7247-7.7765-10.422-21.855-13.158m217.34 2.7861c-2.0533 1.6823-5.0536 2.2782-9.7893 2.2647-3.492-0.01223-7.106-0.65427-10.051-1.322v-10.09c4.2779-0.84802 8.7015-0.86003 10.326-0.79249 4.7437 0.20041 7.5109 1.0038 9.5673 2.4491 2.1403 1.5021 2.8541 5.108-0.0528 7.4905m10.39-11.966c-4.8397-2.8644-13.9-3.9777-20.856-3.9777-9.67 0-15.966 0.65682-21.259 1.5604v34.499h11.886v-12.639c3.6751 0.61373 8.2796 0.96988 12.262 0.9401 9.7249-0.08261 16.953-2.3678 20.244-5.9492 4.688-5.0958 3.114-11.249-2.277-14.434"
        fill="#e6000d" stroke-width=".25498" />
</svg>