<?xml version="1.0" encoding="UTF-8"?>
<svg version="1.0" viewBox="0 0 265 50" xmlns="http://www.w3.org/2000/svg">
    <path
        d="m248.01 43.469h10.916l-11.264-37.176-15.514-6.297e-4 -11.264 37.176h10.92l1.9905-6.8814h12.215l2 6.8814m-11.851-15.148 3.7156-12.844h0.0633l3.7156 12.844zm-175.5 15.815c11.21 0 16.629-1.9748 17.397-12.09 0.18325-2.407 0.21801-4.878 0.21801-7.1687 0.0031-2.2828-0.03476-4.7563-0.21801-7.163-0.76778-10.119-6.1863-12.09-17.397-12.09-11.21 0-16.625 1.9716-17.39 12.09-0.18641 2.4066-0.22433 4.8803-0.22433 7.163 0.0031 2.2907 0.03791 4.7618 0.22433 7.1687 0.76461 10.115 6.18 12.09 17.39 12.09m-7.0489-19.259c0-2.0414 0.05055-3.248 0.09479-4.1433 0.28436-5.7381 2.5499-6.407 6.9542-6.407 4.4076 0 6.673 0.66887 6.9542 6.407 0.04424 0.8951 0.09795 2.1018 0.09795 4.1433 0 2.048-0.05372 3.2568-0.09795 4.1502-0.28121 5.7392-2.5466 6.4093-6.9542 6.4093-4.4043 0-6.6698-0.67016-6.9542-6.4093-0.04424-0.89321-0.09479-2.1021-0.09479-4.1502zm-47.448-18.567v9.2669h11.112v27.907h11.117v-27.907h11.113v-9.2669h-33.344m170.57 37.158v-37.176h-10.55v37.176h10.55m-42.449-23.603v-13.573h-10.49v37.176h10.49v-14.335h12.19v14.335h10.487v-37.176h-10.487v13.573h-12.19m77.148 4.1726c4.6729-1.1946 6.0442-3.9862 6.0442-8.021 0-8.1703-5.1405-9.7254-12.448-9.7254h-18.942v37.176h19.88c9.1531 0 12.231-3.9431 12.231-10.008 0-4.2285-0.96685-7.9592-6.7645-9.4227m-14.86 4.1607h7.2734c2.9383 0 3.5513 1.2872 3.5513 3.3808 0 2.0954-1.1501 3.386-3.5513 3.386h-7.2734zm0-13.404h7.2734c1.8989 0 3.0741 0.90079 3.0741 3.0673 0 1.8572-1.1627 3.0003-3.0741 3.0003h-7.2734zm-112.18 16.475h10c0.0095 1.8035 0.24013 3.0089 1.1153 3.6745 0.99522 0.75007 1.8863 0.99778 4.8405 0.99778 2.8436 0 5.9588 0 5.9588-3.5024 0-2.762-1.7409-3.3923-4.9541-3.5637-7.9685-0.42212-10.85-0.6474-13.817-2.8514-2.0221-1.503-3.0711-4.4291-3.0711-8.3861 0-6.729 2.3475-9.0896 5.7346-10.736 3.4944-1.7002 17.21-1.7002 20.901 0 4.6414 2.1384 4.7773 6.7678 4.7773 11.062h-9.9744c-0.019-2.1893-0.51183-2.8076-0.91308-3.215-1.0364-0.91877-2.5119-1.1128-4.6414-1.1128-2.5783 0-5.5608 0.11627-5.5608 3.247 0 2.3886 1.0332 3.387 3.744 3.5627 3.7251 0.23823 11.065 0.47298 13.681 2.0167 3.6682 2.1697 4.6192 5.1055 4.6192 9.8953 0 6.922-2.4771 8.9535-5.9243 10.477-3.9778 1.7567-17.264 1.7567-21.583-0.13587-4.8342-2.1075-4.9322-6.3078-4.9322-11.429"
        fill="#f00" stroke-width=".38313" />
</svg>