<?xml version="1.0" encoding="UTF-8" standalone="no"?>
<svg
   version="1.1"
   viewBox="0 0 132.29 132.29"
   xml:space="preserve"
   id="svg7"
   sodipodi:docname="logo-at.svg"
   inkscape:version="1.4.3 (0d15f75042, 2025-12-25)"
   xmlns:inkscape="http://www.inkscape.org/namespaces/inkscape"
   xmlns:sodipodi="http://sodipodi.sourceforge.net/DTD/sodipodi-0.dtd"
   xmlns="http://www.w3.org/2000/svg"
   xmlns:svg="http://www.w3.org/2000/svg"><defs
   id="defs7">
        
        
    
            
            
        
                
                
                
                
            </defs><sodipodi:namedview
   id="namedview7"
   pagecolor="#ffffff"
   bordercolor="#000000"
   borderopacity="0.25"
   inkscape:showpageshadow="2"
   inkscape:pageopacity="0.0"
   inkscape:pagecheckerboard="0"
   inkscape:deskcolor="#d1d1d1"
   inkscape:zoom="2.7038038"
   inkscape:cx="39.019103"
   inkscape:cy="65.833179"
   inkscape:window-width="1920"
   inkscape:window-height="1011"
   inkscape:window-x="0"
   inkscape:window-y="0"
   inkscape:window-maximized="1"
   inkscape:current-layer="svg7" />
    
<path
   style="fill:#000000;fill-opacity:1;stroke:none;stroke-width:0.228877;stroke-dasharray:none"
   d="m 77.149589,49.290135 c 5.162232,-10.599508 9.412508,-29.888428 2.320594,-37.092392 -8.408455,-8.5413062 -29.613664,-7.0525821 -30.7021,-1.990092 -1.199898,5.580919 9.054813,14.249326 13.005818,36.461399 3.195058,-0.464394 9.616567,-0.975795 15.375688,2.621085 z"
   id="path9"
   sodipodi:nodetypes="csscc" /><circle
   style="fill:#1a1a1a;fill-opacity:1;stroke:none;stroke-width:0.208387;stroke-dasharray:none"
   id="path10"
   cx="66.295387"
   cy="66.626801"
   r="14.578227" /><path
   style="fill:#0284c7;fill-opacity:1;stroke:none;stroke-width:0.228877;stroke-dasharray:none"
   d="m 86.885137,67.171857 c 11.760563,-0.829129 30.590393,-6.792735 33.283253,-16.5365 3.19276,-11.552586 -8.69912,-29.172474 -13.62757,-27.583841 -5.43318,1.751317 -7.81288,14.966362 -25.073597,29.494067 1.999705,2.534804 5.653345,7.840294 5.417914,14.626274 z"
   id="path11"
   sodipodi:nodetypes="csscc" /><path
   style="fill:#000000;fill-opacity:1;stroke:none;stroke-width:0.228877;stroke-dasharray:none"
   d="m 76.085283,84.690064 c 6.598327,9.770378 21.177877,23.095686 30.962657,20.555896 11.60122,-3.01128 20.91455,-22.119895 17.07452,-25.593749 -4.23327,-3.829608 -16.86769,0.717029 -38.07941,-6.967336 -1.195353,2.999198 -3.96322,8.816087 -9.957767,12.005189 z"
   id="path12"
   sodipodi:nodetypes="csscc" /><path
   style="fill:#0284c7;fill-opacity:1;stroke:none;stroke-width:0.228877;stroke-dasharray:none"
   d="m 55.566118,84.141804 c -5.162233,10.59951 -9.412512,29.888426 -2.320592,37.092396 8.408446,8.54131 29.61366,7.05259 30.702092,1.9901 1.1999,-5.58093 -9.054812,-14.24934 -13.005818,-36.461409 -3.195059,0.464391 -9.616566,0.975793 -15.375682,-2.621087 z"
   id="path13"
   sodipodi:nodetypes="csscc" /><path
   style="fill:#000000;fill-opacity:1;stroke:none;stroke-width:0.228877;stroke-dasharray:none"
   d="M 45.691143,65.70239 C 33.930583,66.531519 15.100751,72.495128 12.407892,82.238894 9.215126,93.791477 21.107,111.41137 26.035462,109.82273 31.468635,108.07141 33.848343,94.85637 51.109058,80.328664 49.109354,77.793857 45.455712,72.488372 45.691143,65.70239 Z"
   id="path14"
   sodipodi:nodetypes="csscc" /><path
   style="fill:#0284c7;fill-opacity:1;stroke:none;stroke-width:0.228877;stroke-dasharray:none"
   d="M 57.15049,48.404026 C 50.791905,38.475953 36.540977,24.799761 26.697285,27.100668 15.02622,29.828705 5.2505827,48.704992 9.00493,52.271276 c 4.138813,3.931501 16.880145,-0.306296 37.898563,7.892035 1.267994,-2.969218 4.176609,-8.71702 10.246997,-11.759285 z"
   id="path15"
   sodipodi:nodetypes="csscc" /></svg>
